<svg id="Layer_1" data-name="Layer 1" xmlns="http://www.w3.org/2000/svg" viewBox="0 0 212.62 309.27"><defs><style>.cls-1{fill:none;stroke:#fff;stroke-miterlimit:10;stroke-width:9px;}</style></defs><rect class="cls-1" x="18.63" y="4.5" width="175.37" height="227.07"/><rect class="cls-1" x="18.63" y="231.57" width="175.37" height="30.64"/><circle class="cls-1" cx="18.63" cy="290.64" r="14.13"/><circle class="cls-1" cx="194" cy="290.64" r="14.13"/><path class="cls-1" d="M84.26,246.48s-28.3.12-28.88-.95q-1.59-2.9,15.19-15.86-1.5-5-3-10a6.51,6.51,0,0,1,6.51-6.51H84.26a6.51,6.51,0,0,1,6.51,6.51V240A6.51,6.51,0,0,1,84.26,246.48Z" transform="translate(-15.96 -34.23)"/><rect class="cls-1" x="103.31" y="167.7" width="67.26" height="43.77" rx="6.23"/><line class="cls-1" x1="132.18" y1="189.59" x2="142.05" y2="189.59"/><path class="cls-1" d="M169.24,198.94v0c0-8.93-5.25-16.16-11.74-16.16h-9.19c-6.49,0-11.75,7.23-11.75,16.16v0Z" transform="translate(-15.96 -34.23)"/><path class="cls-1" d="M57.16,58.5A11.72,11.72,0,0,0,64.06,63a12.28,12.28,0,0,0,12.07-5.18,66.42,66.42,0,0,1,43.12,43.81l-21.74.26L88.2,91.62,90.62,162H54.74V57.81Z" transform="translate(-15.96 -34.23)"/></svg>