<svg id="Layer_1" data-name="Layer 1" xmlns="http://www.w3.org/2000/svg" viewBox="0 0 137.84 286.35"><defs><style>.cls-1{fill:none;stroke:#fff;stroke-miterlimit:10;stroke-width:9px;}</style></defs><rect class="cls-1" x="10.73" y="24.52" width="116.08" height="176.46" rx="29.78"/><line class="cls-1" x1="33.14" y1="217.31" x2="18.88" y2="284.52"/><line class="cls-1" x1="103.86" y1="217.31" x2="133.73" y2="284.52"/><line class="cls-1" x1="17.52" y1="213.75" x2="3.95" y2="238.53"/><line class="cls-1" x1="68.77" x2="68.77" y2="18.33"/><path class="cls-1" d="M152.59,74.61a8.81,8.81,0,0,1-4.61,1.6c-6.11.68-12.22.68-17.65,3.4-4.07,2-7.46,6.11-6.79,10.86a6.85,6.85,0,0,0,2,.68c3.4-.68,6.79-2,10.18-.68a19.69,19.69,0,0,0,2.64,3.21c6.44,6.32,15.51,6.32,18.71,6.16" transform="translate(-41.2 -29.49)"/><circle class="cls-1" cx="52.56" cy="89.81" r="19.43"/><polyline class="cls-1" points="117.14 104.57 101.85 88.63 100.19 100.76 95.33 117.4 85.02 103.01 79.73 121.56 74.53 137.5 73.5 147.21 58.59 159.34 40.56 162.12 24.35 168.7"/></svg>