<svg id="Layer_1" data-name="Layer 1" xmlns="http://www.w3.org/2000/svg" viewBox="0 0 207.13 332.74"><defs><style>.cls-1{fill:none;stroke:#fff;stroke-miterlimit:10;stroke-width:9px;}</style></defs><path class="cls-1" d="M219.12,317.14V60.67A32.68,32.68,0,0,0,186.44,28H53.67A32.69,32.69,0,0,0,21,60.67V319.06a32.68,32.68,0,0,0,32.68,32.68H186.44a32.44,32.44,0,0,0,5.43-.46l-54.66-54.66a21,21,0,0,1-6.12-16.71l-11.57-11.57c-5.71-5.71-5.29-14.67,0-20.44s15.09-5.35,20.45,0l11.79,11.79a22.37,22.37,0,0,1,16.14,6.23Z" transform="translate(-16.49 -23.49)"/><path class="cls-1" d="M43.28,250.63a30.81,30.81,0,0,0,13.27,2c11-.83,15.17-7.62,24.52-8.17,4.1-.23,10,.68,17.36,6.13" transform="translate(-16.49 -23.49)"/><path class="cls-1" d="M49.59,196.5c3,3.46,8,8.25,15.32,10.22,10.87,2.92,17.7-2.84,32.68-6.13,4.22-.93,20.75-4.38,38.81,0,14.65,3.56,18.84,9.49,37.79,13.28a113.45,113.45,0,0,0,16.34,2" transform="translate(-16.49 -23.49)"/><path class="cls-1" d="M54.19,162.13a58.16,58.16,0,0,0,20.42,7.15c20.49,3,27.68-14.63,49-14.3,14.35.22,16.47,7.6,31.66,7.15,13.05-.39,23.59-6.19,30.64-11.23" transform="translate(-16.49 -23.49)"/><line class="cls-1" x1="26.78" y1="77.84" x2="157.51" y2="77.84"/><line class="cls-1" x1="27.71" y1="99.22" x2="135.93" y2="99.22"/><path class="cls-1" d="M55.13,50.79a35,35,0,0,1,.92,18.52,29.59,29.59,0,0,1-4.6,10.42" transform="translate(-16.49 -23.49)"/><path class="cls-1" d="M59.43,49.25A37.31,37.31,0,0,1,69.86,64.68c1,2.86,1.29,4.83,3.68,13.89,1.25,4.74,2.34,8.6,3.07,11.19" transform="translate(-16.49 -23.49)"/><path class="cls-1" d="M62.58,74.35,74,74.08" transform="translate(-16.49 -23.49)"/></svg>