<svg id="Layer_1" data-name="Layer 1" xmlns="http://www.w3.org/2000/svg" viewBox="0 0 219.43 150.75"><defs><style>.cls-1{fill:none;}.cls-1,.cls-2{stroke:#fff;stroke-miterlimit:10;stroke-width:9px;}.cls-2{fill:#fff;}</style></defs><circle class="cls-1" cx="43.43" cy="43.43" r="38.93"/><polyline class="cls-1" points="43.42 19.07 43.42 43.42 56.48 56.48"/><line class="cls-1" x1="43.43" y1="112.2" x2="174.35" y2="112.2"/><line class="cls-1" x1="158.7" y1="95.79" x2="158.7" y2="73.43"/><line class="cls-1" x1="128.02" y1="150.75" x2="128.02" y2="128.39"/><line class="cls-1" x1="96.63" y1="96.02" x2="96.63" y2="73.66"/><path class="cls-2" d="M238,125.89l-17,8.24c-3,1.45-6.93-.12-6.93-2.74V114.1c0-2.62,4-4.19,6.93-2.75l17,8.24a3.2,3.2,0,0,1,2,2.75v.8A3.2,3.2,0,0,1,238,125.89Z" transform="translate(-25.11 -10.54)"/></svg>