<svg xmlns="http://www.w3.org/2000/svg" viewBox="0 0 312.04 312.04"><defs><style>.cls-1{fill:#b2b2b2;}.cls-2{fill:none;stroke:#fff;stroke-miterlimit:10;stroke-width:9px;}</style></defs><g id="Layer_1_copy" data-name="Layer 1 copy"><circle class="cls-1" cx="156.02" cy="156.02" r="156.02"/></g><g id="Icon5"><path class="cls-2" d="M257.12,248.28H142.88c-23.79,0-36.74-18.41-21.43-30.47L177.09,174c5.32-4.19,13.16-6.61,21.43-6.61h3c8.27,0,16.11,2.42,21.43,6.61l55.64,43.85C293.86,229.87,280.91,248.28,257.12,248.28Z" transform="translate(-41.28 -43.98)"/><path class="cls-2" d="M184.9,136.18c-1.49-7.21.32-14.63,4.78-19a15,15,0,0,1,22.84,2.44c3.37,5.15,4.82,14.61,0,19.56a9.23,9.23,0,0,1-5.9,2.73,7,7,0,0,0-6.41,6.8L200,167.35" transform="translate(-41.28 -43.98)"/></g></svg>