<svg xmlns="http://www.w3.org/2000/svg" viewBox="0 0 312.04 312.04"><defs><style>.cls-1{fill:#b2b2b2;}.cls-2{fill:none;}.cls-2,.cls-3{stroke:#fff;stroke-miterlimit:10;stroke-width:9px;}.cls-3,.cls-4{fill:#fff;}</style></defs><g id="Layer_1_copy" data-name="Layer 1 copy"><circle class="cls-1" cx="156.02" cy="156.02" r="156.02"/></g><g id="Icon"><path class="cls-2" d="M128.94,184.64v77.53a23.37,23.37,0,0,0,23.37,23.38h95.38a23.37,23.37,0,0,0,23.37-23.38V184.64Z" transform="translate(-41.28 -43.98)"/><rect class="cls-3" x="166.77" y="191.11" width="32.06" height="50.45" rx="7.18"/><path class="cls-2" d="M291.94,165.65l-54.39-55.93a34.38,34.38,0,0,0-24.64-10.85H187.09a34.38,34.38,0,0,0-24.64,10.85l-54.39,55.93Z" transform="translate(-41.28 -43.98)"/><path class="cls-4" d="M280.64,157.54a3.36,3.36,0,0,0,1.13-2.48V126.89a3.68,3.68,0,0,0-3.83-3.51H270.4a3.68,3.68,0,0,0-3.83,3.51v17.78Z" transform="translate(-41.28 -43.98)"/></g></svg>