<svg xmlns="http://www.w3.org/2000/svg" viewBox="0 0 312.04 322.9"><defs><style>.cls-1{fill:#b2b2b2;}.cls-2,.cls-3{fill:none;stroke-miterlimit:10;stroke-width:9px;}.cls-2{stroke:#fff;}.cls-3{stroke:#b2b2b2;}.cls-4{font-size:44px;fill:#fff;font-family:Rockwell-ExtraBold, Rockwell Extra Bold;font-weight:800;}</style></defs><g id="Layer_1_copy" data-name="Layer 1 copy"><circle class="cls-1" cx="156.02" cy="156.02" r="156.02"/></g><g id="Icon4"><rect class="cls-2" x="62.61" y="76.13" width="39.15" height="39.15" rx="9.96"/><rect class="cls-2" x="62.61" y="141.76" width="39.15" height="39.15" rx="9.96"/><rect class="cls-2" x="62.61" y="207.4" width="39.15" height="39.15" rx="9.96"/><path class="cls-2" d="M175.14,146.76c5.85-11.91,11.14-15,15.23-15.23,7.1-.35,9.28,8.18,19,10.33,8.92,2,13.49-3.77,25-6.52,7-1.68,17.79-2.52,32.63,2.72" transform="translate(-41.28 -43.98)"/><path class="cls-2" d="M166.7,201.67c4.42,3.87,11.17,8.44,19.57,8.7,16.41.52,22.21-15.88,38.07-14.68,9.88.75,9.84,7.29,25.55,9.79a87.1,87.1,0,0,0,19.58.54,94.87,94.87,0,0,0,14.14-2.17" transform="translate(-41.28 -43.98)"/><path class="cls-2" d="M166.7,264.75a23.35,23.35,0,0,0,10.22,5.95c11,2.86,15.89-5.78,29.69-4.46,6.34.6,7.46,2.63,17,3.47a73.82,73.82,0,0,0,12.65,0" transform="translate(-41.28 -43.98)"/><polyline class="cls-3" points="75.99 89.92 87.13 103.11 109.65 76.46"/><polyline class="cls-2" points="73.46 87.47 84.61 100.66 107.12 74.01"/><text class="cls-4" transform="translate(208.1 238.39)">?</text></g></svg>