<svg xmlns="http://www.w3.org/2000/svg" viewBox="0 0 312.04 312.04"><defs><style>.cls-1{fill:#b2b2b2;}.cls-2{fill:none;}.cls-2,.cls-3{stroke:#fff;stroke-miterlimit:10;stroke-width:9px;}.cls-3{fill:#fff;}</style></defs><g id="Layer_1_copy" data-name="Layer 1 copy"><circle class="cls-1" cx="156.02" cy="156.02" r="156.02"/></g><g id="Icon3"><circle class="cls-2" cx="81.29" cy="102.97" r="14.83"/><circle class="cls-2" cx="118.28" cy="204.16" r="14.83"/><circle class="cls-2" cx="156.67" cy="104.27" r="14.83"/><circle class="cls-2" cx="193.47" cy="205.47" r="14.83"/><circle class="cls-2" cx="231.22" cy="104.27" r="14.83"/><line class="cls-2" x1="49.08" y1="154.22" x2="262.46" y2="154.22"/><line class="cls-2" x1="80.32" y1="127.71" x2="80.32" y2="158.06"/><line class="cls-2" x1="118.28" y1="150.57" x2="118.28" y2="180.92"/><line class="cls-2" x1="156.67" y1="128.25" x2="156.67" y2="158.6"/><line class="cls-2" x1="193.47" y1="150.2" x2="193.47" y2="180.55"/><line class="cls-2" x1="231.22" y1="128.25" x2="231.22" y2="158.6"/><path class="cls-3" d="M320.18,200.28l-12.39,8.89a2.56,2.56,0,0,1-4.05-2.08V189.31a2.56,2.56,0,0,1,4.05-2.08l12.39,8.89a2.55,2.55,0,0,1,1.07,2.08h0A2.57,2.57,0,0,1,320.18,200.28Z" transform="translate(-41.28 -43.98)"/></g></svg>