<svg id="Layer_1" data-name="Layer 1" xmlns="http://www.w3.org/2000/svg" viewBox="0 0 351.5 351.5"><defs><style>.cls-1{fill:none;stroke:#fff;stroke-miterlimit:10;stroke-width:27px;}.cls-2{fill:#fff;}</style></defs><rect class="cls-1" x="13.5" y="13.5" width="324.5" height="324.5" rx="79.01"/><path class="cls-2" d="M216.81,121.55c-8.95,11.11-3.22,22.28-7.61,28-6.39,8.34-33.91,4.73-119.54-40a109.43,109.43,0,0,0,13.2,46.78c18.37,33.46,49.06,46.65,58.77,50.37L94.2,238.56a131.21,131.21,0,0,0,55.44,32.92c13.47,3.91,52.93,15.38,86.56-6.92,24.31-16.11,33.1-41.6,36-50A108.72,108.72,0,0,0,278,174.33l27.22-23.77-27-10a74.91,74.91,0,0,0-5-10.61c-4.32-7.55-8.11-14.34-15.59-18-6.9-3.37-13.47-2.73-16.8-2.4C238.9,109.74,225.07,111.3,216.81,121.55Z" transform="translate(-13.75 -12.75)"/></svg>